<?xml version="1.0" standalone="no"?>
<svg viewBox="0 0 200 200" xmlns="http://www.w3.org/2000/svg">
  <path fill="#2ECC71" d="M23.7,-40.3C32.6,-31.2,42.8,-27.7,50.7,-20.3C58.6,-12.8,64,-1.4,66.5,12.4C69,26.3,68.4,42.6,59.6,50.3C50.8,58,33.6,57.1,20.5,53.5C7.3,50,-1.8,43.7,-12,40.8C-22.1,37.8,-33.2,38,-42.5,33.4C-51.9,28.8,-59.7,19.2,-62.4,8.2C-65.2,-2.8,-63,-15.3,-59.7,-29.3C-56.4,-43.3,-52.1,-58.8,-42,-67.3C-31.9,-75.8,-15.9,-77.2,-4.2,-70.6C7.4,-64,14.9,-49.4,23.7,-40.3Z" transform="translate(100 100)" />
</svg>
