<svg xmlns="http://www.w3.org/2000/svg" viewBox="0 0 512 512" role="img" aria-labelledby="title desc">
  <title id="title">NutriFlow</title>
  <desc id="desc">Green nutrition bowl logo with leaves and circuit accents.</desc>
  <defs>
    <radialGradient id="bg" cx="50%" cy="42%" r="70%">
      <stop offset="0%" stop-color="#8bf15d"/>
      <stop offset="45%" stop-color="#35c465"/>
      <stop offset="100%" stop-color="#0d6b4b"/>
    </radialGradient>
    <linearGradient id="bowl" x1="0%" y1="0%" x2="100%" y2="100%">
      <stop offset="0%" stop-color="#0f7d53"/>
      <stop offset="100%" stop-color="#0a4f3b"/>
    </linearGradient>
    <linearGradient id="leaf" x1="0%" y1="0%" x2="100%" y2="100%">
      <stop offset="0%" stop-color="#b8ff5e"/>
      <stop offset="100%" stop-color="#59c43f"/>
    </linearGradient>
    <linearGradient id="stalk" x1="0%" y1="0%" x2="0%" y2="100%">
      <stop offset="0%" stop-color="#f1ff80"/>
      <stop offset="100%" stop-color="#5bcf43"/>
    </linearGradient>
  </defs>

  <rect width="512" height="512" rx="112" fill="url(#bg)"/>
  <circle cx="256" cy="240" r="210" fill="none" stroke="#e7ffd9" stroke-opacity="0.18" stroke-width="12"/>

  <path d="M72 220h86c0 44 22 64 50 80" fill="none" stroke="#0e7a58" stroke-width="16" stroke-linecap="round" stroke-linejoin="round" opacity="0.7"/>
  <circle cx="90" cy="220" r="13" fill="none" stroke="#0e7a58" stroke-width="10" opacity="0.7"/>
  <circle cx="105" cy="270" r="13" fill="none" stroke="#0e7a58" stroke-width="10" opacity="0.7"/>
  <circle cx="92" cy="322" r="13" fill="none" stroke="#0e7a58" stroke-width="10" opacity="0.7"/>

  <path d="M168 210c38-38 80-56 128-56" fill="none" stroke="#0e7a58" stroke-width="14" stroke-linecap="round" opacity="0.45"/>
  <path d="M360 160c35 30 59 69 70 116" fill="none" stroke="#0e7a58" stroke-width="14" stroke-linecap="round" opacity="0.35"/>

  <path d="M202 302c0-62 35-110 88-126 17-5 29 14 21 29-9 16-13 38-11 59 2 19 12 35 28 47" fill="url(#leaf)" opacity="0.95"/>
  <path d="M165 294c4-47 34-91 82-109 15-6 29 10 21 25-9 16-15 35-15 56 0 18 5 36 14 52" fill="url(#leaf)" opacity="0.9"/>
  <path d="M326 184c31 14 54 45 59 79 3 21-11 34-30 28-21-7-39-6-57 4-8 5-21 2-22-8-4-42 10-78 36-103 3-3 9-3 14 0z" fill="#d5ff7a" opacity="0.95"/>

  <path d="M256 194c22 18 37 39 46 60" fill="none" stroke="url(#stalk)" stroke-width="10" stroke-linecap="round"/>
  <path d="M250 196c-2 22 0 40 8 56" fill="none" stroke="url(#stalk)" stroke-width="8" stroke-linecap="round" opacity="0.9"/>

  <path d="M176 330c0-46 36-84 80-84h16c44 0 80 38 80 84v4c0 16-13 29-29 29H205c-16 0-29-13-29-29z" fill="url(#bowl)"/>
  <path d="M189 338c12 0 26 6 41 6h49c18 0 31-6 42-6" fill="none" stroke="#9ff16e" stroke-width="8" stroke-linecap="round" opacity="0.85"/>

  <path d="M220 296c10 11 19 28 22 40 1 5-2 9-7 9h-36c-7 0-11-8-8-14 7-13 18-27 29-35z" fill="#f3ff8e" opacity="0.95"/>
  <path d="M276 292c20 8 37 26 45 43 4 7-1 15-9 15h-46c-7 0-12-6-11-13 2-16 8-31 21-45z" fill="#ff8d2f"/>
  <path d="M275 302c7 5 14 13 17 20" fill="none" stroke="#fff0e0" stroke-width="5" stroke-linecap="round" opacity="0.85"/>
  <path d="M290 316c6 4 10 9 12 15" fill="none" stroke="#fff0e0" stroke-width="4" stroke-linecap="round" opacity="0.75"/>
</svg>
