<svg width="0" height="0" class="hidden">

/**************************************************************/
COMPLANIES LOGOS SVGS
/**************************************************************/

  <symbol role="img" xmlns="http://www.w3.org/2000/svg" viewBox="0 0 24 24" id="notion">
    <title>Notion</title>
    <path d="M4.459 4.208c.746.606 1.026.56 2.428.466l13.215-.793c.28 0 .047-.28-.046-.326L17.86 1.968c-.42-.326-.981-.7-2.055-.607L3.01 2.295c-.466.046-.56.28-.374.466zm.793 3.08v13.904c0 .747.373 1.027 1.214.98l14.523-.84c.841-.046.935-.56.935-1.167V6.354c0-.606-.233-.933-.748-.887l-15.177.887c-.56.047-.747.327-.747.933zm14.337.745c.093.42 0 .84-.42.888l-.7.14v10.264c-.608.327-1.168.514-1.635.514-.748 0-.935-.234-1.495-.933l-4.577-7.186v6.952L12.21 19s0 .84-1.168.84l-3.222.186c-.093-.186 0-.653.327-.746l.84-.233V9.854L7.822 9.76c-.094-.42.14-1.026.793-1.073l3.456-.233 4.764 7.279v-6.44l-1.215-.139c-.093-.514.28-.887.747-.933zM1.936 1.035l13.31-.98c1.634-.14 2.055-.047 3.082.7l4.249 2.986c.7.513.934.653.934 1.213v16.378c0 1.026-.373 1.634-1.68 1.726l-15.458.934c-.98.047-1.448-.093-1.962-.747l-3.129-4.06c-.56-.747-.793-1.306-.793-1.96V2.667c0-.839.374-1.54 1.447-1.632z"></path>
  </symbol>
  <symbol role="img" xmlns="http://www.w3.org/2000/svg" viewBox="0 0 24 24" id="shopify">
    <title>Shopify</title>
    <path d="M15.337 23.979l7.216-1.561s-2.604-17.613-2.625-17.73c-.018-.116-.114-.192-.211-.192s-1.929-.136-1.929-.136-1.275-1.274-1.439-1.411c-.045-.037-.075-.057-.121-.074l-.914 21.104h.023zM11.71 11.305s-.81-.424-1.774-.424c-1.447 0-1.504.906-1.504 1.141 0 1.232 3.24 1.715 3.24 4.629 0 2.295-1.44 3.76-3.406 3.76-2.354 0-3.54-1.465-3.54-1.465l.646-2.086s1.245 1.066 2.28 1.066c.675 0 .975-.545.975-.932 0-1.619-2.654-1.694-2.654-4.359-.034-2.237 1.571-4.416 4.827-4.416 1.257 0 1.875.361 1.875.361l-.945 2.715-.02.01zM11.17.83c.136 0 .271.038.405.135-.984.465-2.064 1.639-2.508 3.992-.656.213-1.293.405-1.889.578C7.697 3.75 8.951.84 11.17.84V.83zm1.235 2.949v.135c-.754.232-1.583.484-2.394.736.466-1.777 1.333-2.645 2.085-2.971.193.501.309 1.176.309 2.1zm.539-2.234c.694.074 1.141.867 1.429 1.755-.349.114-.735.231-1.158.366v-.252c0-.752-.096-1.371-.271-1.871v.002zm2.992 1.289c-.02 0-.06.021-.078.021s-.289.075-.714.21c-.423-1.233-1.176-2.37-2.508-2.37h-.115C12.135.209 11.669 0 11.265 0 8.159 0 6.675 3.877 6.21 5.846c-1.194.365-2.063.636-2.16.674-.675.213-.694.232-.772.87-.075.462-1.83 14.063-1.83 14.063L15.009 24l.927-21.166z"></path>
  </symbol>
  <symbol role="img" xmlns="http://www.w3.org/2000/svg" viewBox="0 0 24 24" id="spotify">
    <title>Spotify</title>
    <path d="M12 0C5.4 0 0 5.4 0 12s5.4 12 12 12 12-5.4 12-12S18.66 0 12 0zm5.521 17.34c-.24.359-.66.48-1.021.24-2.82-1.74-6.36-2.101-10.561-1.141-.418.122-.779-.179-.899-.539-.12-.421.18-.78.54-.9 4.56-1.021 8.52-.6 11.64 1.32.42.18.479.659.301 1.02zm1.44-3.3c-.301.42-.841.6-1.262.3-3.239-1.98-8.159-2.58-11.939-1.38-.479.12-1.02-.12-1.14-.6-.12-.48.12-1.021.6-1.141C9.6 9.9 15 10.561 18.72 12.84c.361.181.54.78.241 1.2zm.12-3.36C15.24 8.4 8.82 8.16 5.16 9.301c-.6.179-1.2-.181-1.38-.721-.18-.601.18-1.2.72-1.381 4.26-1.26 11.28-1.02 15.721 1.621.539.3.719 1.02.419 1.56-.299.421-1.02.599-1.559.3z"></path>
  </symbol>
  <symbol role="img" xmlns="http://www.w3.org/2000/svg" viewBox="0 0 24 24" id="stackblitz">
    <title>StackBlitz</title>
    <path d="M10.797 14.182H3.635L16.728 0l-3.525 9.818h7.162L7.272 24l3.524-9.818Z"></path>
  </symbol>
  <symbol role="img" xmlns="http://www.w3.org/2000/svg" viewBox="0 0 24 24" id="stripe">
    <title>Stripe</title>
    <path d="M13.976 9.15c-2.172-.806-3.356-1.426-3.356-2.409 0-.831.683-1.305 1.901-1.305 2.227 0 4.515.858 6.09 1.631l.89-5.494C18.252.975 15.697 0 12.165 0 9.667 0 7.589.654 6.104 1.872 4.56 3.147 3.757 4.992 3.757 7.218c0 4.039 2.467 5.76 6.476 7.219 2.585.92 3.445 1.574 3.445 2.583 0 .98-.84 1.545-2.354 1.545-1.875 0-4.965-.921-6.99-2.109l-.9 5.555C5.175 22.99 8.385 24 11.714 24c2.641 0 4.843-.624 6.328-1.813 1.664-1.305 2.525-3.236 2.525-5.732 0-4.128-2.524-5.851-6.594-7.305h.003z"></path>
  </symbol>
  <symbol role="img" xmlns="http://www.w3.org/2000/svg" viewBox="0 0 24 24" id="airbnb">
    <title>Airbnb</title>
    <path d="M12.001 18.275c-1.353-1.697-2.148-3.184-2.413-4.457-.263-1.027-.16-1.848.291-2.465.477-.71 1.188-1.056 2.121-1.056s1.643.345 2.12 1.063c.446.61.558 1.432.286 2.465-.291 1.298-1.085 2.785-2.412 4.458zm9.601 1.14c-.185 1.246-1.034 2.28-2.2 2.783-2.253.98-4.483-.583-6.392-2.704 3.157-3.951 3.74-7.028 2.385-9.018-.795-1.14-1.933-1.695-3.394-1.695-2.944 0-4.563 2.49-3.927 5.382.37 1.565 1.352 3.343 2.917 5.332-.98 1.085-1.91 1.856-2.732 2.333-.636.344-1.245.558-1.828.609-2.679.399-4.778-2.2-3.825-4.88.132-.345.395-.98.845-1.961l.025-.053c1.464-3.178 3.242-6.79 5.285-10.795l.053-.132.58-1.116c.45-.822.635-1.19 1.351-1.643.346-.21.77-.315 1.246-.315.954 0 1.698.558 2.016 1.007.158.239.345.557.582.953l.558 1.089.08.159c2.041 4.004 3.821 7.608 5.279 10.794l.026.025.533 1.22.318.764c.243.613.294 1.222.213 1.858zm1.22-2.39c-.186-.583-.505-1.271-.9-2.094v-.03c-1.889-4.006-3.642-7.608-5.307-10.844l-.111-.163C15.317 1.461 14.468 0 12.001 0c-2.44 0-3.476 1.695-4.535 3.898l-.081.16c-1.669 3.236-3.421 6.843-5.303 10.847v.053l-.559 1.22c-.21.504-.317.768-.345.847C-.172 20.74 2.611 24 5.98 24c.027 0 .132 0 .265-.027h.372c1.75-.213 3.554-1.325 5.384-3.317 1.829 1.989 3.635 3.104 5.382 3.317h.372c.133.027.239.027.265.027 3.37.003 6.152-3.261 4.802-6.975z"></path>
  </symbol>
  <symbol role="img" xmlns="http://www.w3.org/2000/svg" viewBox="0 0 24 24" id="bmcsoftware">
    <title>BMC Software</title>
    <path d="M6.375 23.999c-.95 0-1.95-.749-1.95-2.2v-3.4c0-1.349.85-2.899 2.05-3.548l4.75-2.8-4.75-2.8C5.325 8.5 4.425 7 4.425 5.65V2.2c0-1.45 1-2.2 2.002-2.2.4 0 .849.1 1.249.35l10.7 6.35c.75.45 1.15 1.149 1.15 1.849 0 .75-.452 1.45-1.15 1.85l-2.55 1.5 2.55 1.501c.75.45 1.2 1.15 1.2 1.85 0 .75-.452 1.45-1.2 1.85L7.674 23.65c-.45.25-.85.35-1.3.35zm7.15-10.599l-5.85 3.45c-.45.25-.9 1.05-.9 1.55v3.05l10.15-6zM6.775 2.6v3.05c0 .5.45 1.3.9 1.55l5.85 3.45 3.45-2.05z"></path>
  </symbol>
  <symbol role="img" xmlns="http://www.w3.org/2000/svg" viewBox="0 0 24 24" id="dropbox">
    <title>Dropbox</title>
    <path d="M6 1.807L0 5.629l6 3.822 6.001-3.822L6 1.807zM18 1.807l-6 3.822 6 3.822 6-3.822-6-3.822zM0 13.274l6 3.822 6.001-3.822L6 9.452l-6 3.822zM18 9.452l-6 3.822 6 3.822 6-3.822-6-3.822zM6 18.371l6.001 3.822 6-3.822-6-3.822L6 18.371z"></path>
  </symbol>
  <symbol role="img" xmlns="http://www.w3.org/2000/svg" viewBox="0 0 24 24" id="github">
    <title>GitHub</title>
    <path d="M12 .297c-6.63 0-12 5.373-12 12 0 5.303 3.438 9.8 8.205 11.385.6.113.82-.258.82-.577 0-.285-.01-1.04-.015-2.04-3.338.724-4.042-1.61-4.042-1.61C4.422 18.07 3.633 17.7 3.633 17.7c-1.087-.744.084-.729.084-.729 1.205.084 1.838 1.236 1.838 1.236 1.07 1.835 2.809 1.305 3.495.998.108-.776.417-1.305.76-1.605-2.665-.3-5.466-1.332-5.466-5.93 0-1.31.465-2.38 1.235-3.22-.135-.303-.54-1.523.105-3.176 0 0 1.005-.322 3.3 1.23.96-.267 1.98-.399 3-.405 1.02.006 2.04.138 3 .405 2.28-1.552 3.285-1.23 3.285-1.23.645 1.653.24 2.873.12 3.176.765.84 1.23 1.91 1.23 3.22 0 4.61-2.805 5.625-5.475 5.92.42.36.81 1.096.81 2.22 0 1.606-.015 2.896-.015 3.286 0 .315.21.69.825.57C20.565 22.092 24 17.592 24 12.297c0-6.627-5.373-12-12-12"></path>
  </symbol>
  

  <symbol role="img" xmlns="http://www.w3.org/2000/svg" viewBox="0 0 24 24" id="googleplay">
    <title>Google Play</title>
    <path d="M22.018 13.298l-3.919 2.218-3.515-3.493 3.543-3.521 3.891 2.202a1.49 1.49 0 0 1 0 2.594zM1.337.924a1.486 1.486 0 0 0-.112.568v21.017c0 .217.045.419.124.6l11.155-11.087L1.337.924zm12.207 10.065l3.258-3.238L3.45.195a1.466 1.466 0 0 0-.946-.179l11.04 10.973zm0 2.067l-11 10.933c.298.036.612-.016.906-.183l13.324-7.54-3.23-3.21z"></path>
  </symbol>


/**************************************************************/
ILLOSTRATIONS AND BLOBS
/**************************************************************/

  <symbol xmlns="http://www.w3.org/2000/svg" xmlns:xlink="http://www.w3.org/1999/xlink" role="img" artist="Katerina Limpitsouni" source="https://undraw.co/" viewBox="0 0 880 736.95" id="Illostartion-Search">
    <g transform="translate(-164.001 -74.037)">
      <path d="M856.263,663.805,484.692,759.489A49.133,49.133,0,0,1,424.927,724.2L312.554,287.821a49.133,49.133,0,0,1,35.288-59.765l345.687-89.018,88.479,39.609L891.551,604.04A49.133,49.133,0,0,1,856.263,663.805Z" transform="translate(-147.002 -65)" fill="#f2f2f2"></path>
      <path d="M346.736,236.852a34.988,34.988,0,0,0-25.129,42.56L433.98,715.792a34.988,34.988,0,0,0,42.56,25.129l371.572-95.684a34.988,34.988,0,0,0,25.129-42.56l-107.846-418.8-77.757-34.81Z" transform="translate(-142.374 -60.114)" fill="#fff"></path>
      <path d="M656.03,180.515l-57.506,14.808a16.345,16.345,0,0,1-19.905-11.753L567.682,141.1a1.021,1.021,0,0,1,1.4-1.188l87.1,38.683a1.022,1.022,0,0,1-.16,1.923Z" transform="translate(-21.968 -64.618)" fill="#f2f2f2"></path>
      <path d="M665.5,423.036,496.327,466.6a8.173,8.173,0,0,1-4.076-15.829l169.171-43.564a8.173,8.173,0,1,1,4.076,15.829Z" transform="translate(-61.69 65.522)" fill="#ccc"></path>
      <path d="M702.771,435.344,500.952,487.315a8.173,8.173,0,1,1-4.076-15.829l201.818-51.971a8.173,8.173,0,0,1,4.076,15.829Z" transform="translate(-59.437 71.518)" fill="#ccc"></path>
      <circle cx="28.886" cy="28.886" r="28.886" transform="translate(336.705 526.817)" fill="#e6e6e6"></circle>
      <path d="M694.011,443.156,469.335,500.991a25.311,25.311,0,0,1-30.787-18.181L391.465,299.9a25.311,25.311,0,0,1,18.181-30.787l224.676-57.835a25.311,25.311,0,0,1,30.786,18.181l47.084,182.91A25.311,25.311,0,0,1,694.011,443.156Z" transform="translate(-108.191 -30.194)" fill="#fff"></path>
      <path d="M694.011,443.156,469.335,500.991a25.311,25.311,0,0,1-30.787-18.181L391.465,299.9a25.311,25.311,0,0,1,18.181-30.787l224.676-57.835a25.311,25.311,0,0,1,30.786,18.181l47.084,182.91A25.311,25.311,0,0,1,694.011,443.156ZM410.388,271.994a22.333,22.333,0,0,0-16.042,27.165l47.084,182.91a22.333,22.333,0,0,0,27.165,16.042L693.27,440.275a22.333,22.333,0,0,0,16.042-27.165L662.229,230.2a22.333,22.333,0,0,0-27.165-16.042Z" transform="translate(-108.191 -30.194)" fill="#e6e6e6"></path>
      <path d="M585.656,255.006,472.265,284.2a4.061,4.061,0,0,1-4.92-2.556,3.912,3.912,0,0,1,2.755-4.966l115.425-29.712c4.663,2.362,3.436,7.195.129,8.046Z" transform="translate(-70.923 -12.421)" fill="#f2f2f2"></path>
      <path d="M589.1,268.38,475.708,297.569a4.061,4.061,0,0,1-4.92-2.556,3.912,3.912,0,0,1,2.755-4.966l115.425-29.712c4.663,2.363,3.436,7.195.129,8.046Z" transform="translate(-69.246 -5.906)" fill="#f2f2f2"></path>
      <path d="M476.1,313.445l-34.606,8.908a4.405,4.405,0,0,1-5.359-3.165L425.618,278.35a4.4,4.4,0,0,1,3.165-5.359l34.606-8.908a4.407,4.407,0,0,1,5.359,3.165l10.512,40.838a4.405,4.405,0,0,1-3.165,5.359Z" transform="translate(-91.231 -4.147)" fill="#e6e6e6"></path>
      <path d="M615.472,295.821,442.416,340.368a4.061,4.061,0,0,1-4.92-2.556,3.912,3.912,0,0,1,2.755-4.966l175.091-45.071c4.663,2.362,3.436,7.195.129,8.046Z" transform="translate(-85.465 7.463)" fill="#f2f2f2"></path>
      <path d="M618.915,309.2,445.859,353.746a4.061,4.061,0,0,1-4.92-2.556,3.912,3.912,0,0,1,2.755-4.966l175.091-45.071c4.663,2.363,3.436,7.195.129,8.046Z" transform="translate(-83.788 13.98)" fill="#f2f2f2"></path>
      <path d="M622.357,322.568,449.3,367.115a4.061,4.061,0,0,1-4.92-2.556,3.912,3.912,0,0,1,2.756-4.966l175.091-45.071c4.663,2.363,3.436,7.195.129,8.046Z" transform="translate(-82.111 20.494)" fill="#f2f2f2"></path>
      <path d="M625.8,335.945,452.744,380.492a4.061,4.061,0,0,1-4.92-2.556,3.912,3.912,0,0,1,2.756-4.966L625.671,327.9C630.333,330.262,629.107,335.094,625.8,335.945Z" transform="translate(-80.433 27.011)" fill="#f2f2f2"></path>
      <path d="M629.242,349.315,456.186,393.862a4.061,4.061,0,0,1-4.92-2.556,3.912,3.912,0,0,1,2.755-4.966l175.091-45.071C633.775,343.632,632.548,348.464,629.242,349.315Z" transform="translate(-78.757 33.524)" fill="#f2f2f2"></path>
      <path d="M451.8,477.723a3,3,0,0,1-1.895-.131l-.037-.015L442,474.241a3.017,3.017,0,1,1,2.361-5.552l5.1,2.169,6.682-15.719a3.015,3.015,0,0,1,3.955-1.6h0l-.04.1.042-.1a3.019,3.019,0,0,1,1.595,3.956l-7.861,18.482a3.017,3.017,0,0,1-2.03,1.738Z" transform="translate(-84.078 88.105)" fill="#fff"></path>
      <path d="M915.245,783.486H531.552a49.133,49.133,0,0,1-49.077-49.077V283.792a49.133,49.133,0,0,1,49.077-49.077H888.516l75.807,60.423V734.409A49.133,49.133,0,0,1,915.245,783.486Z" transform="translate(-64.166 -18.387)" fill="#d6d6e3"></path>
      <path d="M525.36,244.215c-18.43.022-33.365,15.656-33.386,34.949V729.781c.021,19.293,14.956,34.927,33.386,34.949H891.892c18.43-.022,33.365-15.656,33.386-34.949V297.316l-63.64-53.1Z" transform="translate(-49.872 -13.759)" fill="#fff"></path>
      <path d="M783.2,337.674H608.507a8.173,8.173,0,0,1,0-16.345H783.2a8.173,8.173,0,0,1,0,16.345Z" transform="translate(-6.044 23.809)" fill="#2ecc71"></path>
      <path d="M816.91,356.221h-208.4a8.173,8.173,0,1,1,0-16.345h208.4a8.173,8.173,0,1,1,0,16.345Z" transform="translate(-6.044 32.845)" fill="#2ecc71"></path>
      <path d="M783.2,404.443H608.511a8.172,8.172,0,1,0,0,16.344H783.2a8.172,8.172,0,0,0,0-16.344Z" transform="translate(-6.042 64.302)" fill="#ccc"></path>
      <path d="M816.911,422.993h-208.4a8.172,8.172,0,0,0,0,16.344h208.4a8.172,8.172,0,0,0,0-16.344Z" transform="translate(-6.042 73.339)" fill="#ccc"></path>
      <path d="M783.2,503.909H608.507a8.173,8.173,0,0,1,0-16.345H783.2a8.173,8.173,0,0,1,0,16.345Z" transform="translate(-6.044 104.797)" fill="#ccc"></path>
      <path d="M816.91,522.456h-208.4a8.173,8.173,0,1,1,0-16.345h208.4a8.173,8.173,0,1,1,0,16.345Z" transform="translate(-6.044 113.833)" fill="#ccc"></path>
      <circle cx="28.886" cy="28.886" r="28.886" transform="translate(500.831 338.216)" fill="#2ecc71"></circle>
      <path d="M558.2,350.7a3,3,0,0,1-1.8-.6l-.032-.024-6.789-5.193a3.017,3.017,0,0,1,3.671-4.788l4.4,3.372,10.391-13.556a3.015,3.015,0,0,1,4.228-.558h0l-.064.09.066-.09a3.019,3.019,0,0,1,.558,4.229L560.6,349.523a3.017,3.017,0,0,1-2.4,1.176Z" transform="translate(-31.347 27.417)" fill="#fff"></path>
      <path d="M597.259,428.678a28.885,28.885,0,0,1-28.881,28.9,6.2,6.2,0,0,1-.744-.03,28.884,28.884,0,1,1,29.625-28.866Z" transform="translate(-35.687 62.032)" fill="#ccc"></path>
      <circle cx="28.886" cy="28.886" r="28.886" transform="translate(500.831 585.438)" fill="#ccc"></circle>
      <path d="M830.29,296.708H770.908a16.345,16.345,0,0,1-16.345-16.345V236.5a1.022,1.022,0,0,1,1.656-.8l74.705,59.182a1.022,1.022,0,0,1-.634,1.822Z" transform="translate(69.093 -18.013)" fill="#d6d6e3"></path>
      <path d="M589.51,428.542a28.885,28.885,0,0,1-28.881,28.9,6.2,6.2,0,0,1-.744-.03,62.538,62.538,0,0,1,5.607-57.346A28.9,28.9,0,0,1,589.51,428.542Z" transform="translate(-27.938 62.168)" fill="#2ecc71"></path>
      <path d="M600.334,412.622a8.194,8.194,0,0,1,8.18-8.18h43.53a61.825,61.825,0,0,1,5.369,16.344h-48.9a8.181,8.181,0,0,1-8.18-8.163Z" transform="translate(-6.044 64.302)" fill="#2ecc71"></path>
      <path d="M658.421,422.993a62.35,62.35,0,0,1-2.171,16.344H608.511a8.172,8.172,0,1,1,0-16.344Z" transform="translate(-6.042 73.339)" fill="#2ecc71"></path>
      <path d="M120.652,77.074a8.923,8.923,0,0,1-12.264,2.971L4.278,16.542A8.923,8.923,0,0,1,13.571,1.307l104.11,63.5a8.923,8.923,0,0,1,2.971,12.264Z" transform="translate(631.954 533.875) rotate(11)" fill="#3f3d56"></path>
      <path d="M685.163,483.635a71.385,71.385,0,1,1-23.77-98.115A71.385,71.385,0,0,1,685.163,483.635Zm-106.65-65.052A53.539,53.539,0,1,0,652.1,400.756a53.539,53.539,0,0,0-73.586,17.827Z" transform="translate(-29.19 49.99)" fill="#3f3d56"></path>
      <g transform="translate(706.664 372.72)">
        <path d="M867.955,559.875c-.952-2.023-1.933-4.075-2.974-6.142-3.733-7.54-7.971-15.422-12.478-23.334-12.388-21.862-26.769-44.021-38.087-59.963v-.015c-4.566-6.439-8.641-11.838-11.883-15.824a24.158,24.158,0,1,0-37.239,30.785l36.689,55.725L819.25,567.34l14.069,21.386-48.274,22.263-7.9,3.644L753.873,625.37l-.134.059c-.045-.03-.1-.059-.149-.089a23.9,23.9,0,0,0-3.6-1.8,23.542,23.542,0,0,0-9.682-1.621,23.281,23.281,0,0,0-7.153,1.443,23.591,23.591,0,0,0-15.036,17.891c-.1.476-.163.967-.223,1.472a1.129,1.129,0,0,0-.015.223h-.015a23.682,23.682,0,0,0,12.849,23.617c.3.149.595.3.907.431a22.325,22.325,0,0,0,4.64,1.532,23.482,23.482,0,0,0,6.083.521,23.886,23.886,0,0,0,5.607-.922h.015a24.336,24.336,0,0,0,3.064-1.13,23.694,23.694,0,0,0,13.206-15.928c.952-.119,2.022-.268,3.2-.431,2.409-.342,5.265-.773,8.492-1.294,1.279-.208,2.618-.431,4-.669,24.182-4.164,58-14.97,79.357-30.645,1.041-.773,4.758-2.608,5.7-3.4,0,0,7.393-11.466,7.393-25.907S867.955,559.875,867.955,559.875Z" transform="translate(-535.036 -258.343)" fill="#9f616a"></path>
        <path d="M1531.641-5041.831a47.482,47.482,0,0,1-44.3-47.373,47.479,47.479,0,0,1,47.479-47.479,47.478,47.478,0,0,1,47.478,47.479,47.372,47.372,0,0,1-16.3,35.811l4.509,24.357-35.271,3.5Z" transform="translate(-1340.394 5164.926)" fill="#9f616a"></path>
        <path d="M380.764,327.342l13.989,63.231,102.3,9.253,9.4-55.057Z" transform="translate(-259.741 12.16)" fill="#9f616a"></path>
        <path d="M820.133,632.887H674.909l7.54-22.65,2.469-33.61,1.413.03,111.688,1.859,2.023.03,3.435,28.851a127.6,127.6,0,0,1,16.656,25.49Z" transform="translate(-555.901 -194.621)" fill="#2f2e41"></path>
        <path d="M741.872,410.794l50.918-2.623,23.646,37.37s22.819,4.68,19.735,57.115-32.462,101.206-32.462,101.206l2.183-7.482L802.1,607.211l.486,6.081,5.171,6.441.532,6.661-4.582,10.538,6.23,10.091-130.987-12.69-4.79-17.449,6.99-9.369-3.9-12.222,5.867-11.749,3.059-2.551s-33.472-50.288,4.952-88.163l15.422-26.218L723.8,445.56Z" transform="translate(-556.995 -276.69)" fill="#2ecc71"></path>
        <path d="M520.65,49.31a19.451,19.451,0,0,0,19.619,25.95l.333-.022h0a32.971,32.971,0,0,1,.631,40.379h0a114.14,114.14,0,0,0,7.138,45.529s5.59,33.375,15.318,40.834,23.573-11.005,23.573-11.005-.046,18.968,13.2,17.485,33.3,7.5,39.784-23.416S624.38,97.173,624.38,97.173l-12.189-48.7a63.994,63.994,0,0,0-78.51-46.321L507.209,9.189a37.944,37.944,0,0,0-26.441,48.1h0l39.891-7.979" transform="translate(-332.045 -0.011)" fill="#090814"></path>
        <path d="M801.464,446.665a24.161,24.161,0,0,0-36.6,14.292L718.216,561.625l-76.2-43.261a23.591,23.591,0,1,0-14.723,23.465c16.047,17.126,85.617,87.347,114.418,59.91,24.208-23.062,61.458-97.6,69.868-128.464a24.164,24.164,0,0,0-10.113-26.609Z" transform="translate(-594.887 -267.075)" fill="#9f616a"></path>
      </g>
    </g>
  </symbol>
  <symbol xmlns="http://www.w3.org/2000/svg" xmlns:xlink="http://www.w3.org/1999/xlink" role="img" artist="Katerina Limpitsouni" source="https://undraw.co/" viewBox="0 0 960 757.466" id="Illostration-Build">
    <g transform="translate(-549.873 -217.115)">
      <path d="M215.7,291.444a3.835,3.835,0,0,0-3.832,3.832v30.654a3.832,3.832,0,0,0,7.663,0V295.275A3.835,3.835,0,0,0,215.7,291.444Z" transform="translate(585.969 266.768)" fill="#3f3d56"></path>
      <path d="M648.013,0H303.342a70.771,70.771,0,0,0-70.771,70.771v609.06A70.771,70.771,0,0,0,303.342,750.6H648.013a70.771,70.771,0,0,0,70.771-70.771V70.771A70.771,70.771,0,0,0,648.013,0Z" transform="translate(589.496 217.115)" fill="#fff"></path>
      <path d="M648.257,755.521H303.586a72.529,72.529,0,0,1-72.447-72.446V74.015A72.53,72.53,0,0,1,303.586,1.568H648.257A72.53,72.53,0,0,1,720.7,74.015v609.06a72.529,72.529,0,0,1-72.447,72.446ZM303.586,4.92a69.173,69.173,0,0,0-69.1,69.1v609.06a69.173,69.173,0,0,0,69.1,69.095H648.257a69.173,69.173,0,0,0,69.1-69.095V74.015a69.173,69.173,0,0,0-69.1-69.1H303.586Z" transform="translate(589.252 217.382)" fill="#3f3d56"></path>
      <path d="M630.588,129.907H492.049a10.657,10.657,0,0,1,0-21.314H630.588a10.657,10.657,0,0,1,0,21.314Z" transform="translate(631.887 235.616)" fill="#e6e6e6"></path>
      <path d="M518.32,200.2H383.654a6.157,6.157,0,1,1,0-12.314H518.32a6.157,6.157,0,0,1,0,12.314Z" transform="translate(614.187 249.126)" fill="#2ecc71"></path>
      <path d="M5,0H72.929a5,5,0,1,1,0,9.99H5A5,5,0,0,1,5,0Z" transform="translate(864.765 243.515)" fill="#2ecc71"></path>
      <circle cx="7.992" cy="7.992" r="7.992" transform="translate(1193.148 237.521)" fill="#e6e6e6"></circle>
      <circle cx="7.992" cy="7.992" r="7.992" transform="translate(1215.127 237.521)" fill="#e6e6e6"></circle>
      <circle cx="7.992" cy="7.992" r="7.992" transform="translate(1237.105 237.521)" fill="#e6e6e6"></circle>
      <path d="M292.323,226.862a1.988,1.988,0,0,0,1.994,1.994h342.36a1.994,1.994,0,0,0,0-3.989H294.318A1.988,1.988,0,0,0,292.323,226.862Z" transform="translate(599.676 255.426)" fill="#3f3d56"></path>
      <path d="M524.323,467.862a1.988,1.988,0,0,0,1.994,1.994h342.36a1.994,1.994,0,1,0,0-3.989H526.317a1.988,1.988,0,0,0-1.994,1.994Z" transform="translate(639.201 296.485)" fill="#3f3d56"></path>
      <path d="M589.3,362.291H383.847a6.157,6.157,0,1,1,0-12.314H589.3a6.157,6.157,0,0,1,0,12.314Z" transform="translate(614.22 276.74)" fill="#2ecc71"></path>
      <circle cx="15.083" cy="15.083" r="15.083" transform="translate(920.667 617.031)" fill="#2ecc71"></circle>
      <path d="M328.274,383.628v-3.352a22.624,22.624,0,0,0,0-45.248v-3.352a25.976,25.976,0,1,1,0,51.951Z" transform="translate(605.801 273.623)" fill="#3f3d56"></path>
      <path d="M179.548,303.529c6.152-6.261,14.37-8.162,18.354-4.246s2.225,12.165-3.93,18.427a21.968,21.968,0,0,1-8.739,5.593l-26.4,26.2L146.8,336.851l27.306-24.484a21.969,21.969,0,0,1,5.442-8.837Z" transform="translate(574.883 267.757)" fill="#ffb6b6"></path>
      <path d="M107.71,284.4l27.683,61.413L179.6,321.881l15.82,8.4s-36.137,60.414-60.88,53.537-68.68-69.237-60.764-88.483S107.71,284.4,107.71,284.4Z" transform="translate(562.282 265.263)" fill="#e6e6e6"></path>
      <path d="M0,644.216a1.389,1.389,0,0,0,1.393,1.393H854.931a1.393,1.393,0,1,0,0-2.785H1.393A1.389,1.389,0,0,0,0,644.216Z" transform="translate(549.873 328.973)" fill="#e6e6e6"></path>
      <ellipse cx="75.956" cy="74.355" rx="75.956" ry="74.355" transform="translate(729.435 521.898)" fill="#2ecc71"></ellipse>
      <g transform="translate(653.183 881.091)">
        <path d="M92.262,645.182l20.185,0,9.6-77.858-29.792,0Z" transform="translate(-87.592 -567.322)" fill="#ed9da0"></path>
        <path d="M162.1,636.772h0c.628,1.058.96,4.475.96,5.706h0a6.851,6.851,0,0,1-6.851,6.851H93.7a4.674,4.674,0,0,1-4.674-4.674v-2.6S85.93,634.231,92.3,624.59c0,0,7.913,7.549,19.737-4.275L115.52,614l25.239,18.459,13.99,1.722c3.061.377,5.774-.058,7.349,2.593Z" transform="translate(-88.271 -559.37)" fill="#2f2e41"></path>
      </g>
      <path d="M0,62.081l11.7-14.31A29.059,29.059,0,1,1,34.926,58.1l-.29,19.345Z" transform="translate(638.492 476.16)" fill="#ed9da0"></path>
      <path d="M150.682,447.9,122.867,637.174H87.97l4.64-108.042,2.442-56.809L87.97,445.281a120.77,120.77,0,0,1-5.95-13.3c-3.066-8.222-5.488-18.079-1.893-22.754,1.323-1.723,4.762-3,9.437-3.948a97.639,97.639,0,0,1,9.769-1.391c20.637-2.042,49.992-.767,49.992-.767l.746,24.626.414,13.751.2,6.4Z" transform="translate(563.219 285.728)" fill="#2f2e41"></path>
      <g transform="translate(617.288 872.664)">
        <path d="M61.88,637.152l19.971,2.934,20.825-75.634L73.2,560.122Z" transform="translate(-56.873 -560.122)" fill="#ed9da0"></path>
        <path d="M131.1,638.413h0c.468,1.139.3,4.567.12,5.785h0a6.851,6.851,0,0,1-7.775,5.782L61.6,640.887a4.674,4.674,0,0,1-3.944-5.3l.379-2.575s-1.922-8.189,5.78-16.8c0,0,6.731,8.62,20.149-1.359l4.368-5.742,22.286,21.934,13.591,3.739c2.973.818,5.721.782,6.893,3.634h0Z" transform="translate(-57.602 -551.776)" fill="#2f2e41"></path>
      </g>
      <path d="M154.119,417.018,150.3,449.873,129.5,519.107,95.25,633.09l-34.522-5.073L91.711,465.95l-3.068-27.79s-1-2.762-2.144-6.806c-2.273-8-5.124-21.03-1.988-27.676a7.77,7.77,0,0,1,1.613-2.322c1.234-1.2,3.741-1.923,7.1-2.308,14.042-1.587,42.96,2.952,55.828,5.18l5.066,12.791Z" transform="translate(560.219 285.044)" fill="#2f2e41"></path>
      <path d="M82.157,269.459l33.92,16.282s35.955,106.509,35.955,111.936,10.176,8.819,4.07,14.925,11.364,11.276,1.951,16.153S89.919,460.309,83.389,457.9c-18.009-6.635.763-31.015.763-31.015S70.624,415.994,72.66,410.567,60.448,301.344,60.448,301.344l21.709-31.885Z" transform="translate(560.172 263.023)" fill="#e6e6e6"></path>
      <g transform="translate(638.633 555.122)">
        <path d="M173.832,349.793c8.418-2.487,16.525-.159,18.107,5.2s-3.96,11.715-12.382,14.2a21.968,21.968,0,0,1-10.355.648l-35.8,10.087-4.376-16.9,35.759-8.15a21.97,21.97,0,0,1,9.048-5.084Z" transform="translate(-66.778 -278.583)" fill="#ed9da0"></path>
        <path d="M119.569,300.115l-5.611,67.13,50.263.54,9.755,15.021s-60.922,35.275-79.215,17.251S68.329,306.185,84.593,293.2s34.977,6.914,34.977,6.914Z" transform="translate(-75.839 -288.804)" fill="#e6e6e6"></path>
      </g>
      <g transform="translate(638.091 455.9)">
        <path d="M94.026,254.138s4.576-7.55,7.093-11.44,2.517-9.588,2.517-9.588,23.337-.479,31.117,6.156,13.27-17.846,5.72-26.312c0,0-3.2,3.661-2.517,5.034l.686,1.373s-3.89-15.558-15.1-18.533c0,0-6.237,3.221-4.491,5.043s-13.355-10.991-17.931-3.441c0,0-11.211-.229-9.838,3.89l-.686,2.517s-9.61-2.974-10.3,4.118c0,0,3.432,0,5.262,1.83s-6.635,7.093-6.635,7.093-9.838,27,3.432,37.981c0,0,.114-13.156,5.377-9.953s6.292,4.233,6.292,4.233Z" transform="translate(-75.416 -200.025)" fill="#2f2e41"></path>
      </g>
      <g transform="translate(1211.778 908.063)">
        <path d="M608.283,646.947,594.7,644.011l4.859-53.8,20.051,4.334Z" transform="translate(-560.221 -590.213)" fill="#ed9da0"></path>
        <path d="M568.616,629.111h0a11.935,11.935,0,0,0-1.476,3.7h0a4.717,4.717,0,0,0,3.615,5.607l42.073,9.09a3.218,3.218,0,0,0,3.825-2.466l.378-1.752s3.219-4.815.336-12.23c0,0-6.423,3.93-12.662-5.747l-1.428-4.758-19.671,8.753-9.666-.875c-2.115-.192-3.878-.879-5.323.677h0Z" transform="translate(-567.033 -582.741)" fill="#2f2e41"></path>
      </g>
      <g transform="translate(1193.206 905.09)">
        <path d="M588.34,643.419l-11.334-8.045,25.636-47.547L619.369,599.7Z" transform="translate(-546.004 -587.827)" fill="#ed9da0"></path>
        <path d="M555.813,610.169h0A11.935,11.935,0,0,0,553,612.99h0a4.717,4.717,0,0,0,1.117,6.577l35.1,24.912a3.218,3.218,0,0,0,4.487-.762l1.037-1.461s4.854-3.16,5.121-11.111c0,0-7.452,1.086-9.379-10.266l.559-4.936-21.529.307-8.542-4.608c-1.869-1.008-3.219-2.334-5.16-1.472Z" transform="translate(-552.13 -582.394)" fill="#2f2e41"></path>
      </g>
      <path d="M731.8,425.268s19.849,26.986-19.849,57.326l-81.049-25.9,28.946-60.373,25.638-14.06L731.8,425.268Z" transform="translate(657.36 282.241)" fill="#2f2e41"></path>
      <path d="M638.371,447.3l-31.427,61.2L587.1,635.867l24.811,1.654,24.811-120.746L680.55,451.44l-30.6-14.059" transform="translate(649.896 291.631)" fill="#2f2e41"></path>
      <path d="M718.216,452.776V472l-56.238,61.767s0,46.314-21.5,67.816l-24.811,38.043-21.5-11.578,31.427-110.822,56.238-72.779Z" transform="translate(651.1 292.835)" fill="#2f2e41"></path>
      <path d="M23.532,49.919A24.981,24.981,0,1,1,49.961,24.981c0,.736-.033,1.464-.094,2.184l.031-.016c-.017.07-.034.14-.049.21q-.107,1.147-.317,2.261c-1.04,14.5,13.238,44.2,13.238,44.2L30.255,81.767Z" transform="translate(1307.624 513.651)" fill="#ed9da0"></path>
      <path d="M698.645,293.933l-24.811,11.578s-12.764,7.8-13,13,1.42,30.007,1.42,30.007-9.924,9.924-3.308,29.773l-3.308,33.081,74.433,39.7-6.616-69.47,3.308-64.508Z" transform="translate(661.574 267.192)" fill="#e6e6e6"></path>
      <g transform="translate(1365.501 583.728)">
        <path d="M713.886,460.836c-2.9,6.665-8.7,10.569-12.94,8.719s-5.324-8.751-2.417-15.418a18.2,18.2,0,0,1,5.1-6.914L716.3,419.138l13.053,6.224-13.871,27.026a18.2,18.2,0,0,1-1.593,8.448Z" transform="translate(-696.898 -295.205)" fill="#ed9da0"></path>
        <path d="M700.158,317.934s18.195-11.578,24.811,1.654,21.5,81.049,21.5,81.049l-21.5,64.508-19.849-8.27,17.368-69.425-22.33-69.516Z" transform="translate(-696.343 -313.246)" fill="#e6e6e6"></path>
      </g>
      <g transform="translate(1259.11 584.442)">
        <path d="M622.949,451.383c-5.156,5.126-11.981,6.621-15.242,3.339s-1.726-10.1,3.433-15.224a18.2,18.2,0,0,1,7.292-4.548l22.121-21.444,9.842,10.6-22.852,20.015a18.2,18.2,0,0,1-4.593,7.267Z" transform="translate(-605.994 -296.878)" fill="#ed9da0"></path>
        <path d="M667.457,313.885s31.721-1.3,33,13.442-20.409,80.506-20.409,80.506l-43.755,52.049-15.406-15,41.722-58.144,4.851-72.853Z" transform="translate(-603.457 -313.855)" fill="#e6e6e6"></path>
      </g>
      <g transform="translate(1136.363 682.938)">
        <path d="M769.215,469.671,566.38,436.955a6.157,6.157,0,1,1,1.961-12.157l202.835,32.716a6.157,6.157,0,0,1-1.961,12.157Z" transform="translate(-490.879 -393.464)" fill="#2ecc71"></path>
        <circle cx="15.083" cy="15.083" r="15.083" transform="translate(0 11.656)" fill="#2ecc71"></circle>
        <path d="M509.169,449.3l.534-3.309a22.624,22.624,0,0,0,7.2-44.671l.534-3.309a25.976,25.976,0,1,1-8.272,51.289Z" transform="translate(-499.744 -398.014)" fill="#3f3d56"></path>
      </g>
      <g transform="translate(1301.367 485.505)">
        <path d="M688.1,282.448s-15.595-14.156-25.587-9.16a153.962,153.962,0,0,0-14.988,8.327s-8.327-12.49,4.163-23.315c0,0-20.327-2.613-1.787-19.959S674.618,234,674.618,234s27.863-4.846,12.042,15.139c0,0,23.049,14.617,11.108,38.534,0,0-1.116-15.219-4.446-11.056a50.856,50.856,0,0,1-5.222,5.829Z" transform="translate(-642.1 -229.321)" fill="#2f2e41"></path>
      </g>
      <path d="M248.478,358.481l-28.649-70.437c-1.319-3.243-5.451-3.358-6.738,0a311.342,311.342,0,0,0-18.566,76.491c-.5,4.461,6.487,4.425,6.987,0a298.6,298.6,0,0,1,5.093-30.483,73.465,73.465,0,0,0,23.4-2.572l11.738,28.859C243.412,364.449,250.174,362.651,248.478,358.481ZM208.19,327.143q3.53-14.45,8.449-28.519l10.709,26.33a67.483,67.483,0,0,1-19.158,2.19Z" transform="translate(583.01 265.767)" fill="#fff"></path>
      <circle cx="7" cy="7" r="7" transform="translate(837.873 616.263)" fill="#fff"></circle>
      <circle cx="7" cy="7" r="7" transform="translate(764.873 553.263)" fill="#fff"></circle>
      <g transform="translate(972.062 816.935)">
        <path d="M870.87,177.293v147.3a3.707,3.707,0,0,1-3.706,3.708H617.115a3.118,3.118,0,0,1-.531-.041,3.705,3.705,0,0,1-3.177-3.667v-147.3a3.707,3.707,0,0,1,3.706-3.708H867.162a3.707,3.707,0,0,1,3.708,3.706Z" transform="translate(-613.406 -173.584)" fill="#e6e6e6"></path>
        <circle cx="32.534" cy="32.534" r="32.534" transform="translate(30.497 22.511)" fill="#090814"></circle>
        <path d="M782.034,344.953H622.43a3.256,3.256,0,0,1-.6-.047l75.485-130.751a5.285,5.285,0,0,1,9.2,0l50.66,87.744,2.427,4.2Z" transform="translate(-616.979 -189.648)" fill="#2ecc71"></path>
        <path d="M745.869,261.267H691.377l26.75-38.855,1.926-2.8.963-1.4,2.427,4.2Z" transform="translate(-580.814 -105.962)" opacity="0.2"></path>
        <path d="M952.624,373.319H814.579l26.75-38.856,1.925-2.8,34.858-50.637c2.285-3.319,7.783-3.525,10.47-.626a6.283,6.283,0,0,1,.5.626Z" transform="translate(-698.702 -218.014)" fill="#2ecc71"></path>
      </g>
    </g>
  </symbol>
  <symbol xmlns="http://www.w3.org/2000/svg" viewBox="0 0 200 200" id="Blob-1">
    <path fill="#2ECC71" d="M23.7,-40.3C32.6,-31.2,42.8,-27.7,50.7,-20.3C58.6,-12.8,64,-1.4,66.5,12.4C69,26.3,68.4,42.6,59.6,50.3C50.8,58,33.6,57.1,20.5,53.5C7.3,50,-1.8,43.7,-12,40.8C-22.1,37.8,-33.2,38,-42.5,33.4C-51.9,28.8,-59.7,19.2,-62.4,8.2C-65.2,-2.8,-63,-15.3,-59.7,-29.3C-56.4,-43.3,-52.1,-58.8,-42,-67.3C-31.9,-75.8,-15.9,-77.2,-4.2,-70.6C7.4,-64,14.9,-49.4,23.7,-40.3Z" transform="translate(100 100)"></path>
  </symbol>
  <symbol xmlns="http://www.w3.org/2000/svg" viewBox="0 0 200 200" id="Blob-2">
    <path fill="#2ECC71" d="M43,-49.8C51.8,-34.3,52.2,-17.1,49.4,-2.8C46.7,11.6,40.8,23.2,32,30.4C23.2,37.5,11.6,40.1,-4.1,44.2C-19.8,48.3,-39.6,53.8,-53.6,46.7C-67.7,39.6,-76,19.8,-72.4,3.6C-68.8,-12.6,-53.3,-25.2,-39.3,-40.8C-25.2,-56.3,-12.6,-74.8,2.3,-77.1C17.1,-79.4,34.3,-65.4,43,-49.8Z" transform="translate(100 100)"></path>
  </symbol>
  <symbol xmlns="http://www.w3.org/2000/svg" xmlns:xlink="http://www.w3.org/1999/xlink" role="img" artist="Katerina Limpitsouni" source="https://undraw.co/" viewBox="0 0 884.604 880" id="Illostartion-Pay">
    <g transform="translate(-583.566 -170.139)">
      <g transform="translate(1029.374 170.139)">
        <g transform="translate(0)">
          <path d="M705.156,288.314h-4.839V155.855A76.665,76.665,0,0,0,623.652,79.19H343.025a76.665,76.665,0,0,0-76.664,76.665V882.525a76.665,76.665,0,0,0,76.665,76.665H623.652a76.664,76.664,0,0,0,76.665-76.664V382.589h4.84Z" transform="translate(-266.36 -79.19)" fill="#090814"></path>
          <path d="M623.089,95.686H586.465a27.2,27.2,0,0,1-25.19,37.474H400.5a27.2,27.2,0,0,1-25.191-37.474H341.1a57.252,57.252,0,0,0-57.252,57.252V878.547A57.251,57.251,0,0,0,341.1,935.8H623.084a57.252,57.252,0,0,0,57.252-57.252V152.938a57.251,57.251,0,0,0-57.245-57.252Z" transform="translate(-262.692 -75.737)" fill="#fff"></path>
        </g>
        <rect width="266.804" height="118.721" rx="8" transform="translate(80.424 119.589)" fill="#e6e6e6"></rect>
        <g transform="translate(85.805 519.567)">
          <circle cx="8.533" cy="8.533" r="8.533" transform="translate(0 0)" fill="#e6e6e6"></circle>
          <path d="M696.5,456.411a4.418,4.418,0,1,0,0,8.837H904.78a4.419,4.419,0,1,0,.145-8.836Z" transform="translate(-652.805 -452.297)" fill="#e6e6e6"></path>
          <circle cx="8.533" cy="8.533" r="8.533" transform="translate(0 41.442)" fill="#e6e6e6"></circle>
          <path d="M696.5,491.63a4.418,4.418,0,1,0,0,8.837H904.78a4.419,4.419,0,1,0,.145-8.836Z" transform="translate(-652.805 -446.074)" fill="#e6e6e6"></path>
          <circle cx="8.533" cy="8.533" r="8.533" transform="translate(0 82.885)" fill="#e6e6e6"></circle>
          <path d="M696.5,526.849a4.418,4.418,0,1,0,0,8.837H904.78a4.419,4.419,0,1,0,.145-8.836Z" transform="translate(-652.805 -439.851)" fill="#e6e6e6"></path>
          <circle cx="8.533" cy="8.533" r="8.533" transform="translate(0 124.327)" fill="#e6e6e6"></circle>
          <path d="M696.5,562.068a4.418,4.418,0,1,0,0,8.837H904.78a4.419,4.419,0,1,0,.145-8.836Z" transform="translate(-652.805 -433.627)" fill="#e6e6e6"></path>
          <circle cx="8.533" cy="8.533" r="8.533" transform="translate(0 165.769)" fill="#e6e6e6"></circle>
          <path d="M696.5,597.287a4.418,4.418,0,1,0,0,8.837H904.78a4.419,4.419,0,1,0,.145-8.836Z" transform="translate(-652.805 -427.404)" fill="#e6e6e6"></path>
          <circle cx="8.533" cy="8.533" r="8.533" transform="translate(0 207.21)" fill="#e6e6e6"></circle>
          <path d="M696.5,632.506a4.418,4.418,0,1,0,0,8.837H904.78a4.419,4.419,0,1,0,.145-8.836Z" transform="translate(-652.805 -421.181)" fill="#e6e6e6"></path>
          <circle cx="8.533" cy="8.533" r="8.533" transform="translate(0 248.652)" fill="#e6e6e6"></circle>
          <path d="M696.5,667.725a4.418,4.418,0,1,0,0,8.837H904.78a4.419,4.419,0,1,0,.145-8.836Z" transform="translate(-652.805 -414.958)" fill="#e6e6e6"></path>
        </g>
      </g>
      <g transform="translate(893.702 391.129) rotate(8)">
        <path d="M354.8,184.517,82.633,280.743a26.942,26.942,0,0,1-34.338-16.4L1.537,132.1a26.942,26.942,0,0,1,16.4-34.338L290.107,1.537a26.942,26.942,0,0,1,34.338,16.4L371.2,150.175a26.942,26.942,0,0,1-16.4,34.338Z" transform="translate(0 0)" fill="#2ecc71"></path>
        <path d="M321.989,0l.248.7a25.7,25.7,0,0,1-15.668,32.794L33.039,130.2A25.7,25.7,0,0,1,.248,114.539l-.248-.7Z" transform="translate(49.213 150.175)" fill="#f2f2f2" opacity="0.096"></path>
        <path d="M49.248,15.607C31.207,27.478,8.086,18.545,0,5.531L1.29,4.8C16.648-4.774,39.456.56,49.248,15.607Z" transform="translate(16.401 112.857)" fill="#f2f2f2"></path>
        <path d="M29.516,66.832C25.1,68.393,21.125,68.32,17.7,66.619,9.951,62.77,6.322,51.36,3.4,42.189,2.547,39.521,1.746,37,.928,34.942L.917,34.91a16.421,16.421,0,0,1,9.95-20.848L47.475,1.119c4.41-1.56,8.381-1.489,11.8.213,7.744,3.843,11.381,15.251,14.3,24.416.85,2.673,1.658,5.2,2.477,7.26a16.431,16.431,0,0,1-9.946,20.88ZM2.448,34.359c.835,2.113,1.644,4.649,2.5,7.336C7.776,50.571,11.3,61.617,18.422,65.158c3.058,1.522,6.509,1.564,10.549.136l36.6-12.94a14.793,14.793,0,0,0,8.966-18.776c-.829-2.084-1.642-4.634-2.5-7.335C69.2,17.372,65.679,6.329,58.556,2.793c-3.055-1.517-6.5-1.56-10.536-.135L11.417,15.6A14.786,14.786,0,0,0,2.456,34.357Z" transform="translate(262.208 95.313)" fill="#f2f2f2"></path>
        <path d="M43.412,20.77a36.386,36.386,0,0,1-20,1.1c-9.7-2.126-18.5-7.917-22.963-15.106L0,6.042,2.013,4.9C17.6-4.813,40.983.452,51.07,15.954l.442.676-.676.446A34.239,34.239,0,0,1,43.412,20.77ZM2.3,6.615c4.373,6.5,12.511,11.694,21.466,13.661a34,34,0,0,0,25.485-4.113C39.376,1.884,17.508-2.852,2.862,6.29Z" transform="translate(14.649 111.971)" fill="#3f3d56"></path>
        <path d="M19.553,46.75A13.536,13.536,0,0,1,5.789,44.468,16.931,16.931,0,0,1,.251,28.818,13.584,13.584,0,0,1,9.79,18.283L58.565,1.038A13.61,13.61,0,0,1,72.6,3.245a16.931,16.931,0,0,1,5.528,15.65c-.963,5.034-4.359,8.742-9.541,10.516L19.809,46.656ZM10.092,19.9a11.988,11.988,0,0,0-8.241,9.214,15.252,15.252,0,0,0,4.988,14.1,12,12,0,0,0,12.409,1.905l48.8-17.254a12.013,12.013,0,0,0,8.472-9.281,15.252,15.252,0,0,0-4.988-14.1,12.05,12.05,0,0,0-12.42-1.914L10.3,19.831l-.224.078Z" transform="translate(48.069 180.902)" fill="#f2f2f2"></path>
        <path d="M20.816,7.927,5.44,13.364A4.079,4.079,0,0,1,2.721,5.671L18.1.234a4.079,4.079,0,0,1,2.719,7.693Z" transform="translate(271.233 115.31)" fill="#d6d6e3"></path>
        <path d="M20.816,7.927,5.44,13.364A4.079,4.079,0,1,1,2.721,5.671L18.1.234a4.079,4.079,0,0,1,2.719,7.693Z" transform="translate(275.582 127.612)" fill="#d6d6e3"></path>
        <path d="M20.816,7.927,5.44,13.364A4.079,4.079,0,1,1,2.721,5.671L18.1.234a4.079,4.079,0,0,1,2.719,7.693Z" transform="translate(279.931 139.912)" fill="#d6d6e3"></path>
        <path d="M20.816,7.927,5.44,13.364A4.079,4.079,0,0,1,2.721,5.671L18.1.234a4.079,4.079,0,0,1,2.719,7.693Z" transform="translate(298.142 105.796)" fill="#d6d6e3"></path>
        <path d="M20.816,7.927,5.44,13.364A4.079,4.079,0,1,1,2.721,5.671L18.1.234a4.079,4.079,0,0,1,2.719,7.693Z" transform="translate(302.492 118.097)" fill="#d6d6e3"></path>
        <path d="M20.816,7.928,5.44,13.364A4.079,4.079,0,1,1,2.721,5.671L18.1.234a4.079,4.079,0,0,1,2.719,7.693Z" transform="translate(306.84 130.396)" fill="#d6d6e3"></path>
        <rect width="341.52" height="1.631" transform="translate(12.639 160.564) rotate(-19.45)" fill="#3f3d56"></rect>
        <path d="M354.8,184.517,82.633,280.743a26.942,26.942,0,0,1-34.338-16.4L1.537,132.1a26.942,26.942,0,0,1,16.4-34.338L290.107,1.537a26.942,26.942,0,0,1,34.338,16.4L371.2,150.175a26.942,26.942,0,0,1-16.4,34.338ZM18.482,99.3A25.309,25.309,0,0,0,3.075,131.56L49.829,263.8a25.308,25.308,0,0,0,32.26,15.408l272.169-96.229a25.308,25.308,0,0,0,15.408-32.261L322.911,18.483a25.308,25.308,0,0,0-32.26-15.415Z" transform="translate(0 0)" fill="#3f3d56"></path>
      </g>
      <g transform="translate(583.566 343.431)">
        <path d="M21.513,102.582,5.316,91.006,7.148,79.46a76.242,76.242,0,0,0,7.01-14.073,36.517,36.517,0,1,1,32.423,6.231c-1.174,3.042-6.923,18.856-4.85,31.347Z" transform="translate(147.199 15.765)" fill="#ed9da0"></path>
        <path d="M255.5,559.645l24.371,12.121,28.942-53.558-25.082-13.746Z" transform="translate(-241.397 95.378)" fill="#ed9da0"></path>
        <path d="M394.317,577.559h23.428l5.488-61.984H394.311Z" transform="translate(-212.607 98.078)" fill="#ed9da0"></path>
        <path d="M460.66,301.528S449.9,293.283,449.9,313.422l-1.7,66.55,18.97,62.866,11.041-20.391-4.524-44.174Z" transform="translate(-354.118 -131.48)" fill="#d6d6e3"></path>
        <path d="M586.824,457.879s12.481,60.772-3.333,110.647l-8.735,191.757-32.028-2.5L531.5,615.53,520.69,544.818l-22.464,64.472L424.18,745.724,390.075,719.1s37.8-103.133,65.721-124.788l14.006-159.5Z" transform="translate(-365.169 -105.807)" fill="#090814"></path>
        <path d="M527.123,218.416c4.378.57,7.681-3.91,9.212-8.05s2.7-8.961,6.5-11.2c5.2-3.055,11.853.619,17.8-.389,6.72-1.139,11.083-8.255,11.426-15.057s-2.365-13.345-5.021-19.618l-.928,7.8a15.458,15.458,0,0,0-6.754-13.512l1.19,11.437a12.14,12.14,0,0,0-13.964-10.051l.188,6.815c-7.757-.923-15.581-1.846-23.36-1.144s-15.613,3.163-21.509,8.288c-8.819,7.664-12.04,20.281-10.96,31.922s5.88,22.561,10.889,33.122c1.259,2.657,3,5.654,5.921,5.992,2.619.3,5.025-1.889,5.841-4.4a15.952,15.952,0,0,0-.071-7.838c-.738-3.922-1.667-7.929-.974-11.858s3.521-7.812,7.481-8.294,8.014,4.047,6.11,7.552Z" transform="translate(-346.016 -158.393)" fill="#090814"></path>
        <path d="M449.261,316.791l-121.9-7.865,9.176-38.012,111.417,24.906Z" transform="translate(-225.345 51.533)" fill="#2ecc71"></path>
        <path d="M504.432,245.855l7.646-10.616s8.546,2.9,31.435,14.3l1.618,9.946,39.729,244.355-72.214-3.12L492.98,500.3l-14.371-.306-19.2-.408-19.54-11.328,19.255-58.893,6.23-53.811-9.629-50.691s-12.121-46.549,34.549-71.653Z" transform="translate(-355.694 -143.774)" fill="#d6d6e3"></path>
        <path d="M640.188,405.642a12.481,12.481,0,0,1-15.522-11.2l-42.843-11.475,17.234-15.3L637.1,380.917a12.549,12.549,0,0,1,3.089,24.73Z" transform="translate(-328.685 -118.58)" fill="#ed9da0"></path>
        <path d="M639.08,418.429a7.311,7.311,0,0,1-5.936.48l-70.478-26.75a75.255,75.255,0,0,1-40.506-34.141L492.768,305.59a23.525,23.525,0,0,1,35.1-31.33l50.872,80.626,64.019,37.534a7.321,7.321,0,0,1,3.12,7.791L642.7,413.7a7.313,7.313,0,0,1-2.221,3.749,7.238,7.238,0,0,1-1.391.985Z" transform="translate(-346.767 -137.845)" fill="#d6d6e3"></path>
        <path d="M448.2,741.769H127.84c-.187,0-.34-.533-.34-1.19s.152-1.191.34-1.191H448.2c.187,0,.34.533.34,1.191S448.385,741.769,448.2,741.769Z" transform="translate(-127.5 -47.864)" fill="#cbcbcb"></path>
        <path d="M314.053,792.282l26.882,13.752S383,816.062,355.612,824.395s-39.717,2.41-39.717,2.41-35.826,1.863-35.249-8.133,7.47-24.051,7.47-24.051S312.091,800.887,314.053,792.282Z" transform="translate(-108.551 -122.139)" fill="#090814"></path>
        <path d="M35.485,0,60.3,12.529S102.359,22.557,74.972,30.89,35.256,33.3,35.256,33.3-.57,35.162.007,25.167,7.476,1.116,7.476,1.116,33.522,8.6,35.485,0Z" transform="translate(9.742 647.678) rotate(16)" fill="#090814"></path>
      </g>
    </g>
  </symbol>






</svg>



  
